<svg xmlns="http://www.w3.org/2000/svg" width="24" height="24" viewBox="0 0 24 24">
    <g fill="none" fill-rule="evenodd">
        <circle cx="12" cy="12" r="12" fill="#888" opacity=".194"/>
        <g fill="#474747">
            <path d="M11.944 9.692a.406.406 0 0 0-.406.414v4.711a.406.406 0 1 0 .812 0v-4.711a.406.406 0 0 0-.406-.414M10.062 9.692c-.215 0-.384.199-.369.43l.154 4.712c0 .215.184.397.384.397h.015c.215 0 .384-.199.368-.43l-.153-4.712a.394.394 0 0 0-.4-.397M13.538 10.09l-.153 4.71c0 .232.153.414.369.43h.015c.2 0 .37-.181.385-.396l.154-4.712c0-.231-.154-.413-.37-.43-.215 0-.4.166-.4.397"/>
            <path d="M15.452 15.12c-.033 1.168-1.02 2.08-2.22 2.08h-2.465c-1.2 0-2.17-.912-2.22-2.08l-.23-6.72h7.365l-.23 6.72zm-5.014-8.08a.25.25 0 0 1 .247-.24h2.63a.25.25 0 0 1 .247.24v.56h-3.124v-.56zm3.946 0c0-.576-.477-1.04-1.069-1.04h-2.63c-.592 0-1.069.464-1.069 1.04v.56H6.411A.402.402 0 0 0 6 8c0 .224.18.4.411.4h1.085l.23 6.736c.05 1.6 1.397 2.864 3.041 2.864h2.466c1.644 0 2.992-1.264 3.041-2.864l.23-6.736h1.085c.23 0 .411-.176.411-.4 0-.224-.18-.4-.411-.4h-3.205v-.56z"/>
        </g>
    </g>
</svg>
