<svg xmlns="http://www.w3.org/2000/svg" id="delete-circle.ea65e52d" width="24" height="24" viewBox="0 0 24 24">
    <defs>
        <style>
            .cls-1{fill:#888;opacity:.194}.cls-2{fill:#474747;fill-rule:evenodd}
        </style>
    </defs>
    <circle id="Ellipse_90" cx="12" cy="12" r="12" class="cls-1" data-name="Ellipse 90"/>
    <g id="Group_193" data-name="Group 193">
        <path id="Path_1054" d="M11.944 9.692a.406.406 0 0 0-.406.414v4.711a.406.406 0 0 0 .812 0v-4.711a.406.406 0 0 0-.406-.414m-1.882 0a.39.39 0 0 0-.369.43l.154 4.712a.4.4 0 0 0 .384.4h.015a.389.389 0 0 0 .368-.43l-.153-4.712a.394.394 0 0 0-.4-.4m3.477.4l-.153 4.71a.408.408 0 0 0 .369.43h.015a.413.413 0 0 0 .385-.4l.154-4.712a.41.41 0 0 0-.37-.43.4.4 0 0 0-.4.4" class="cls-2" data-name="Path 1054"/>
        <path id="Path_1055" d="M15.452 15.12a2.179 2.179 0 0 1-2.22 2.08h-2.465a2.19 2.19 0 0 1-2.22-2.08l-.23-6.72h7.365l-.23 6.72zm-5.014-8.08a.25.25 0 0 1 .247-.24h2.63a.25.25 0 0 1 .247.24v.56h-3.124zm3.946 0A1.053 1.053 0 0 0 13.315 6h-2.63a1.053 1.053 0 0 0-1.069 1.04v.56h-3.2a.4.4 0 1 0 0 .8H7.5l.23 6.736A3 3 0 0 0 10.767 18h2.466a3 3 0 0 0 3.041-2.864L16.5 8.4h1.085a.4.4 0 1 0 0-.8h-3.2v-.56z" class="cls-2" data-name="Path 1055"/>
    </g>
</svg>
